#!OML:ASF X:\für Bonn\!DataBase\2005_08_12_Daniel\c3d\Daniel.ASF
:FULLY-SPECIFIED
:DEGREES
228
root 13.8507 1.72181 0.732643 -657.632 -84.249 -145.958
lowerback 67.0048 -5.39992 9.68241
upperback 13.7397 -4.61038 -1.60134
thorax -5.92152 -3.90231 -3.58127
lowerneck -6.66207 2.98096 -7.86303
upperneck 1.97337 4.60727 -1.9313
head 1.61645 2.13968 0.872218
rclavicle -4.60932e-015 -2.34069e-014
rhumerus -62.7306 6.29922 -97.6834
rradius 25.4593
rwrist 28.2807
rhand -64.7166 -295.853
rfingers 7.12502
rthumb -36.6295 -322.012
lclavicle -4.60932e-015 -2.34069e-014
lhumerus -409.359 9.60323 -273.006
lradius 37.1073
lwrist 10.9248
lhand -67.3974 341.891
lfingers 7.12502
lthumb -39.1615 367.364
rfemur 131.194 -163.53 197.626
rtibia 86.4457
rfoot 37.6097 1.47031
rtoes 11.2439
lfemur -62.7127 23.8438 -21.473
ltibia 109.895
lfoot 28.3082 6.82425
ltoes 10.3982
229
root 13.8681 1.71684 0.724558 -658.189 -84.5574 -145.32
lowerback 66.9019 -5.32762 9.47999
upperback 13.7056 -4.65509 -1.66133
thorax -5.98517 -3.91325 -3.54747
lowerneck -6.61994 3.09757 -7.89957
upperneck 1.97282 4.76115 -1.96657
head 1.60386 2.21489 0.870217
rclavicle 1.37907e-014 1.23743e-014
rhumerus -63.4368 7.05521 -98.6918
rradius 26.6286
rwrist 26.9888
rhand -64.5674 -297.041
rfingers 7.12502
rthumb -36.4883 -323.236
lclavicle 1.37907e-014 1.23743e-014
lhumerus -409.631 9.16746 -272.885
lradius 38.1502
lwrist 11.7791
lhand -67.1751 342.301
lfingers 7.12502
lthumb -38.952 367.834
rfemur 131.625 -163.546 197.451
rtibia 85.4271
rfoot 37.918 0.809074
rtoes 12.0038
lfemur -62.6614 23.5827 -21.8298
ltibia 109.577
lfoot 28.616 6.89164
ltoes 10.3116
230
root 13.885 1.71212 0.716994 -658.757 -84.888 -144.67
lowerback 66.7671 -5.21971 9.24099
upperback 13.6885 -4.68631 -1.7065
thorax -6.02922 -3.92047 -3.48967
lowerneck -6.57821 3.22115 -7.87854
upperneck 1.98711 4.92216 -2.06234
head 1.59849 2.29186 0.839655
rclavicle 2.62085e-014 5.10877e-014
rhumerus -64.2274 7.8748 -99.7258
rradius 27.9697
rwrist 25.5739
rhand -64.4299 -298.211
rfingers 7.12502
rthumb -36.3581 -324.438
lclavicle 2.62085e-014 5.10877e-014
lhumerus -409.943 8.82157 -272.819
lradius 39.2876
lwrist 12.5398
lhand -67.0186 343.197
lfingers 7.12502
lthumb -38.8044 368.773
rfemur 132.016 -163.611 197.225
rtibia 84.5004
rfoot 38.2551 0.0224425
rtoes 12.7305
lfemur -62.6066 23.3548 -22.1922
ltibia 109.26
lfoot 28.8973 6.99633
ltoes 10.2699
231
root 13.9033 1.70699 0.711602 -659.417 -85.1773 -143.968
lowerback 66.6657 -5.16689 9.06434
upperback 13.6513 -4.73533 -1.77034
thorax -6.09485 -3.93238 -3.46792
lowerneck -6.47933 3.34757 -7.83244
upperneck 1.98982 5.07941 -2.16197
head 1.5802 2.36821 0.801812
rclavicle -5.38582e-015 1.55549e-014
rhumerus -65.1267 8.70813 -100.811
rradius 29.4201
rwrist 24.1018
rhand -64.2799 -299.213
rfingers 7.12502
rthumb -36.216 -325.476
lclavicle -5.38582e-015 1.55549e-014
lhumerus -410.33 8.49227 -272.828
lradius 40.5378
lwrist 13.2647
lhand -66.8089 344.649
lfingers 7.12502
lthumb -38.6066 370.281
rfemur 132.442 -163.686 196.995
rtibia 83.6404
rfoot 38.5319 -0.767762
rtoes 12.8931
lfemur -62.4989 23.1262 -22.4851
ltibia 108.931
lfoot 29.1412 7.11278
ltoes 10.1848
232
root 13.9198 1.7015 0.70609 -660.193 -85.4836 -143.224
lowerback 66.5956 -5.09159 8.86048
upperback 13.6178 -4.77766 -1.8294
thorax -6.15448 -3.94458 -3.43194
lowerneck -6.28801 3.49561 -7.70367
upperneck 1.95634 5.25064 -2.32615
head 1.53713 2.4529 0.726843
rclavicle -7.01958e-016 4.19436e-014
rhumerus -66.1917 9.66542 -102.029
rradius 31.0557
rwrist 22.4312
rhand -64.1253 -300.24
rfingers 7.12502
rthumb -36.0696 -326.539
lclavicle -7.01958e-016 4.19436e-014
lhumerus -410.789 8.18554 -272.891
lradius 41.8801
lwrist 13.933
lhand -66.6195 346.537
lfingers 7.12502
lthumb -38.4278 372.218
rfemur 132.901 -163.772 196.714
rtibia 82.8852
rfoot 38.7836 -1.52243
rtoes 12.8898
lfemur -62.295 22.9348 -22.7403
ltibia 108.591
lfoot 29.3524 7.28296
ltoes 10.2423
